<svg xmlns="http://www.w3.org/2000/svg" width="16.861" height="16.889" viewBox="0 0 16.861 16.889">
  <g id="phone-call" transform="translate(1 1)">
    <path id="Shape" d="M12.728,14.889c-.043,0-.087,0-.129-.006A14.136,14.136,0,0,1,6.459,12.7,13.966,13.966,0,0,1,2.19,8.431,14.15,14.15,0,0,1,.006,2.262,1.423,1.423,0,0,1,1.421.711H3.57A1.43,1.43,0,0,1,4.979,1.935a9.125,9.125,0,0,0,.5,2,1.427,1.427,0,0,1-.32,1.5l-.9.9a11.391,11.391,0,0,0,4.269,4.269l.9-.9a1.422,1.422,0,0,1,1.5-.32,9.125,9.125,0,0,0,2,.5,1.423,1.423,0,0,1,1.224,1.445v2.134a1.422,1.422,0,0,1-1.421,1.429Zm-.713-9.233,0,0L9.205,2.846a3.546,3.546,0,0,1,2.81,2.808Zm2.846-.007h0L9.205,0a6.4,6.4,0,0,1,5.656,5.647Z" transform="translate(0 0)" fill="none" stroke="#fff" stroke-linecap="round" stroke-linejoin="round" stroke-miterlimit="10" stroke-width="2"/>
  </g>
</svg>
