<svg id="icon" xmlns="http://www.w3.org/2000/svg" width="60" height="60" viewBox="0 0 60 60">
  <g id="Ellipse_51" data-name="Ellipse 51" fill="#fff" stroke="#145a93" stroke-width="5">
    <circle cx="30" cy="30" r="30" stroke="none"/>
    <circle cx="30" cy="30" r="27.5" fill="none"/>
  </g>
  <g id="Clock_1" data-name="Clock – 1" transform="translate(22 22)">
    <path id="Path_13" data-name="Path 13" d="M2.4,2.4A7.263,7.263,0,0,1,8,0a7.263,7.263,0,0,1,5.6,2.4A7.263,7.263,0,0,1,16,8a7.263,7.263,0,0,1-2.4,5.6A7.263,7.263,0,0,1,8,16a7.263,7.263,0,0,1-5.6-2.4A7.984,7.984,0,0,1,0,8,7.263,7.263,0,0,1,2.4,2.4Zm9.2,9.2.933-.933L9.2,7.333,8,2H6.667V8a1.21,1.21,0,0,0,.4.933.466.466,0,0,0,.267.133Z" fill="#145b93"/>
  </g>
</svg>
